# xmcd CD database file
# Copyright (C) 1993-1998 Ti Kan
#
# Track frame offsets:
#  150
#  19130
#  50053
#  69193
#  93568
#  110443
#  126198
#  147253
#  171373
#
# Disc length: 2474 seconds
#
# Revision: 1
# Processed by: cddbd v1.4b41PL1 Copyright (c) Steve Scherf et al.
# Submitted via: CDWizzard Release:4.35
#
DISCID=7e09a809
DTITLE=The Clark Sistors - Heart and Soul
DYEAR=1900
DGENRE=
TTITLE0=He'll Turn Your Scars Into Stars
TTITLE1=Jesus Is A Love Song
TTITLE2=Smile, God Loves You
TTITLE3=Pray For The U.S.A.
TTITLE4=Time Out
TTITLE5=The Greatest Glory
TTITLE6=There Is A Balm In Gilead
TTITLE7=I've Got An Angel
TTITLE8=I Am Blessed
EXTD=
EXTT0=
EXTT1=
EXTT2=
EXTT3=
EXTT4=
EXTT5=
EXTT6=
EXTT7=
EXTT8=
PLAYORDER=
